<?xml version="1.0" standalone="no"?>
<!DOCTYPE svg PUBLIC "-//W3C//DTD SVG 20010904//EN"
 "http://www.w3.org/TR/2001/REC-SVG-20010904/DTD/svg10.dtd">
<svg version="1.0" xmlns="http://www.w3.org/2000/svg"
 width="164.000000pt" height="164.000000pt" viewBox="0 0 164.000000 164.000000"
 preserveAspectRatio="xMidYMid meet">
<metadata>
Created by potrace 1.11, written by Peter Selinger 2001-2013
</metadata>
<g transform="translate(0.000000,164.000000) scale(0.100000,-0.100000)"
fill="#000000" stroke="none">
<path d="M465 1183 c-22 -38 -47 -82 -55 -99 -8 -17 -20 -37 -26 -45 -6 -8
-25 -39 -41 -69 -29 -53 -277 -486 -323 -562 l-22 -38 822 0 822 0 -20 33
c-11 17 -33 55 -49 83 -113 203 -439 764 -443 764 -4 0 -37 -54 -74 -120 -38
-66 -71 -120 -75 -120 -4 0 -38 54 -76 120 -38 66 -73 120 -76 120 -4 0 -14
-12 -22 -27 -39 -75 -131 -233 -136 -233 -3 0 -40 59 -81 130 -41 72 -77 130
-80 130 -3 0 -24 -30 -45 -67z"/>
</g>
</svg>
